<?xml version="1.0" encoding="UTF-8"?>
<svg width="402px" height="135px" viewBox="0 0 402 135" version="1.1" xmlns="http://www.w3.org/2000/svg" xmlns:xlink="http://www.w3.org/1999/xlink">
    <!-- Generator: Sketch 50.2 (55047) - http://www.bohemiancoding.com/sketch -->
    <title>Group</title>
    <desc>Created with Sketch.</desc>
    <defs></defs>
    <g id="Page-1" stroke="none" stroke-width="1" fill="none" fill-rule="evenodd">
        <g id="7.4-HOA_Tarjetas" transform="translate(-368.000000, -445.000000)">
            <g id="Group-230">
                <g id="Group" transform="translate(368.000000, 445.000000)">
                    <path d="M307.0908,110.3408 L371.9238,110.3408 L339.4848,41.6088 L307.0908,110.3408 Z M389.8328,132.9698 L389.7768,132.9698 L289.2558,132.9698 C285.3648,132.9698 281.7418,130.9888 279.6788,127.7318 C277.6088,124.4498 277.3458,120.3388 278.9948,116.8408 L329.2808,10.2388 C331.1238,6.2748 335.1228,3.7608 339.4848,3.7608 C343.8748,3.7608 347.8618,6.2748 349.7558,10.2388 L399.5578,115.8718 C400.5648,117.5698 401.1218,119.5358 401.1218,121.6748 C401.1218,127.9148 396.0668,132.9698 389.8328,132.9698 Z" id="Fill-205" fill="#ED5E31"></path>
                    <path d="M197.7588,23.5928 C173.3068,23.5928 153.4498,43.4698 153.4498,67.8978 C153.4498,92.3468 173.3068,112.2278 197.7588,112.2278 C222.1968,112.2278 242.0808,92.3468 242.0808,67.8978 C242.0808,43.4698 222.1968,23.5928 197.7588,23.5928 M197.7588,134.8408 C160.8488,134.8408 130.8128,104.8408 130.8128,67.8978 C130.8128,30.9798 160.8488,0.9468 197.7588,0.9468 C234.6808,0.9468 264.7158,30.9798 264.7158,67.8978 C264.7158,104.8408 234.6808,134.8408 197.7588,134.8408" id="Fill-206" fill="#5BC5E2"></path>
                    <path d="M23.306,109.397 L84.59,109.397 L84.59,28.301 L23.306,28.301 L23.306,109.397 Z M95.922,132.024 L11.99,132.024 C5.732,132.024 0.682,126.981 0.682,120.72 L0.682,16.974 C0.682,10.733 5.732,5.679 11.99,5.679 L95.922,5.679 C102.163,5.679 107.233,10.733 107.233,16.974 L107.233,120.72 C107.233,126.981 102.163,132.024 95.922,132.024 Z" id="Fill-207" fill="#5AB947"></path>
                </g>
            </g>
        </g>
    </g>
</svg>