<?xml version="1.0" encoding="UTF-8"?>
<svg width="184px" height="62px" viewBox="0 0 184 62" version="1.1" xmlns="http://www.w3.org/2000/svg" xmlns:xlink="http://www.w3.org/1999/xlink">
    <!-- Generator: Sketch 50.2 (55047) - http://www.bohemiancoding.com/sketch -->
    <title>Group 3</title>
    <desc>Created with Sketch.</desc>
    <defs>
        <path d="M140.2305,51.0518 L169.9015,51.0518 L155.0545,19.5968 L140.2305,51.0518 Z M178.0955,61.4068 L178.0705,61.4068 L132.0675,61.4068 C130.2865,61.4068 128.6295,60.5008 127.6845,59.0108 C126.7385,57.5088 126.6195,55.6278 127.3725,54.0268 L150.3855,5.2388 C151.2295,3.4248 153.0585,2.2768 155.0545,2.2768 C157.0655,2.2768 158.8875,3.4248 159.7555,5.2388 L182.5465,53.5808 C183.0055,54.3588 183.2635,55.2608 183.2635,56.2378 C183.2635,59.0928 180.9485,61.4068 178.0955,61.4068 Z" id="path-1"></path>
        <filter x="-1.8%" y="-1.7%" width="103.5%" height="103.4%" filterUnits="objectBoundingBox" id="filter-2">
            <feGaussianBlur stdDeviation="0.5" in="SourceAlpha" result="shadowBlurInner1"></feGaussianBlur>
            <feOffset dx="1" dy="1" in="shadowBlurInner1" result="shadowOffsetInner1"></feOffset>
            <feComposite in="shadowOffsetInner1" in2="SourceAlpha" operator="arithmetic" k2="-1" k3="1" result="shadowInnerInner1"></feComposite>
            <feColorMatrix values="0 0 0 0 0   0 0 0 0 0   0 0 0 0 0  0 0 0 0.5 0" type="matrix" in="shadowInnerInner1"></feColorMatrix>
        </filter>
        <path d="M90.1963,11.3506 C79.0063,11.3506 69.9183,20.4486 69.9183,31.6256 C69.9183,42.8176 79.0063,51.9166 90.1963,51.9166 C101.3793,51.9166 110.4783,42.8176 110.4783,31.6256 C110.4783,20.4486 101.3793,11.3506 90.1963,11.3506 M90.1963,62.2646 C73.3033,62.2646 59.5583,48.5346 59.5583,31.6256 C59.5583,14.7356 73.3033,0.9896 90.1963,0.9896 C107.0923,0.9896 120.8383,14.7356 120.8383,31.6256 C120.8383,48.5346 107.0923,62.2646 90.1963,62.2646" id="path-3"></path>
        <filter x="-1.6%" y="-1.6%" width="103.3%" height="103.3%" filterUnits="objectBoundingBox" id="filter-4">
            <feGaussianBlur stdDeviation="0.5" in="SourceAlpha" result="shadowBlurInner1"></feGaussianBlur>
            <feOffset dx="1" dy="1" in="shadowBlurInner1" result="shadowOffsetInner1"></feOffset>
            <feComposite in="shadowOffsetInner1" in2="SourceAlpha" operator="arithmetic" k2="-1" k3="1" result="shadowInnerInner1"></feComposite>
            <feColorMatrix values="0 0 0 0 0   0 0 0 0 0   0 0 0 0 0  0 0 0 0.5 0" type="matrix" in="shadowInnerInner1"></feColorMatrix>
        </filter>
        <path d="M10.36,50.618 L38.405,50.618 L38.405,13.507 L10.36,13.507 L10.36,50.618 Z M43.592,60.976 L5.181,60.976 C2.317,60.976 0.005,58.665 0.005,55.8 L0.005,8.323 C0.005,5.468 2.317,3.153 5.181,3.153 L43.592,3.153 C46.447,3.153 48.768,5.468 48.768,8.323 L48.768,55.8 C48.768,58.665 46.447,60.976 43.592,60.976 Z" id="path-5"></path>
        <filter x="-2.1%" y="-1.7%" width="104.1%" height="103.5%" filterUnits="objectBoundingBox" id="filter-6">
            <feGaussianBlur stdDeviation="0.5" in="SourceAlpha" result="shadowBlurInner1"></feGaussianBlur>
            <feOffset dx="1" dy="1" in="shadowBlurInner1" result="shadowOffsetInner1"></feOffset>
            <feComposite in="shadowOffsetInner1" in2="SourceAlpha" operator="arithmetic" k2="-1" k3="1" result="shadowInnerInner1"></feComposite>
            <feColorMatrix values="0 0 0 0 0   0 0 0 0 0   0 0 0 0 0  0 0 0 0.5 0" type="matrix" in="shadowInnerInner1"></feColorMatrix>
        </filter>
    </defs>
    <g id="Page-1" stroke="none" stroke-width="1" fill="none" fill-rule="evenodd">
        <g id="logo-iso" transform="translate(-169.000000, -80.000000)">
            <g id="Group-3" transform="translate(169.000000, 79.000000)">
                <g id="Fill-31">
                    <use fill="#696767" fill-rule="evenodd" xlink:href="#path-1"></use>
                    <use fill="black" fill-opacity="1" filter="url(#filter-2)" xlink:href="#path-1"></use>
                </g>
                <g id="Fill-33">
                    <use fill="#696767" fill-rule="evenodd" xlink:href="#path-3"></use>
                    <use fill="black" fill-opacity="1" filter="url(#filter-4)" xlink:href="#path-3"></use>
                </g>
                <g id="Fill-35">
                    <use fill="#696767" fill-rule="evenodd" xlink:href="#path-5"></use>
                    <use fill="black" fill-opacity="1" filter="url(#filter-6)" xlink:href="#path-5"></use>
                </g>
            </g>
        </g>
    </g>
</svg>